<svg width="78" height="21" viewBox="0 0 78 21" fill="none" xmlns="http://www.w3.org/2000/svg">
<path d="M0.888 20V0.0319996H13.112V2.016H3V8.576H11.352V10.624H3V18.016H13.016V20H0.888ZM23.032 20.32C20.5573 20.32 18.488 19.552 16.824 18.016L18.104 15.84L18.296 15.552L18.488 15.68C18.5307 15.8507 18.5733 16.032 18.616 16.224C18.68 16.3947 18.8293 16.608 19.064 16.864C19.512 17.312 20.0453 17.6853 20.664 17.984C21.304 18.2613 22.1147 18.4 23.096 18.4C24.2693 18.4 25.176 18.1973 25.816 17.792C26.4773 17.3653 26.808 16.7893 26.808 16.064C26.808 15.4453 26.5307 14.9333 25.976 14.528C25.4427 14.1227 24.4933 13.696 23.128 13.248C21.4427 12.7573 20.0987 12.1493 19.096 11.424C18.1147 10.6987 17.624 9.792 17.624 8.704C17.624 7.59467 18.072 6.70933 18.968 6.048C19.8853 5.36533 21.2293 5.024 23 5.024C24.3653 5.024 25.496 5.216 26.392 5.6C27.288 5.984 28.0987 6.56 28.824 7.328L27.512 8.928L27.288 9.184L27.128 9.024C27.1067 8.85333 27.0533 8.69333 26.968 8.544C26.904 8.37333 26.7547 8.17067 26.52 7.936C26.0293 7.552 25.4747 7.264 24.856 7.072C24.2373 6.85867 23.64 6.752 23.064 6.752C22.2107 6.752 21.4747 6.90133 20.856 7.2C20.2373 7.49867 19.928 7.95733 19.928 8.576C19.928 8.896 20.0347 9.216 20.248 9.536C20.4827 9.83467 20.8987 10.144 21.496 10.464C22.0933 10.7627 22.9467 11.072 24.056 11.392C25.8907 11.9467 27.1813 12.5547 27.928 13.216C28.696 13.856 29.08 14.6987 29.08 15.744C29.08 16.5547 28.856 17.312 28.408 18.016C27.9813 18.72 27.32 19.2853 26.424 19.712C25.528 20.1173 24.3973 20.32 23.032 20.32ZM40.568 20.224C39.3093 20.224 38.3493 19.936 37.688 19.36C37.048 18.784 36.6213 17.8987 36.408 16.704C36.1947 15.488 36.12 13.9413 36.184 12.064L36.376 7.264H33.24V5.376H36.44L36.568 1.632L38.968 1.344L39.288 1.312L39.32 1.536C39.2133 1.68533 39.1173 1.83467 39.032 1.984C38.968 2.13333 38.9147 2.38933 38.872 2.752L38.648 5.376H43.768V7.264H38.68L38.456 12.224C38.392 13.8453 38.4347 15.104 38.584 16C38.7333 16.8747 39 17.4827 39.384 17.824C39.768 18.144 40.28 18.304 40.92 18.304C41.624 18.304 42.2427 18.1653 42.776 17.888C43.3307 17.6107 43.9067 17.2587 44.504 16.832L45.208 18.656C44.4827 19.1893 43.736 19.584 42.968 19.84C42.2 20.096 41.4 20.224 40.568 20.224ZM55.704 20.32C53.5707 20.32 51.8427 19.6693 50.52 18.368C49.2187 17.0667 48.568 15.1893 48.568 12.736C48.568 11.072 48.8667 9.67467 49.464 8.544C50.0827 7.392 50.8933 6.51733 51.896 5.92C52.92 5.32267 54.0507 5.024 55.288 5.024C56.3973 5.024 57.4 5.26933 58.296 5.76C59.192 6.25067 59.9067 7.008 60.44 8.032C60.9733 9.056 61.24 10.368 61.24 11.968C61.24 12.1387 61.2293 12.32 61.208 12.512C61.208 12.6827 61.1973 12.8533 61.176 13.024H50.776C50.8613 14.9013 51.384 16.2773 52.344 17.152C53.3253 18.0267 54.4667 18.464 55.768 18.464C57.304 18.464 58.5627 17.92 59.544 16.832L60.824 18.08C59.5867 19.5733 57.88 20.32 55.704 20.32ZM50.872 11.232H58.904C58.904 9.86667 58.552 8.78933 57.848 8C57.1653 7.18933 56.2587 6.784 55.128 6.784C54.1253 6.784 53.2187 7.14667 52.408 7.872C51.5973 8.576 51.0853 9.696 50.872 11.232ZM71.704 20.32C69.5707 20.32 67.8427 19.6693 66.52 18.368C65.2187 17.0667 64.568 15.1893 64.568 12.736C64.568 11.072 64.8667 9.67467 65.464 8.544C66.0827 7.392 66.8933 6.51733 67.896 5.92C68.92 5.32267 70.0507 5.024 71.288 5.024C72.3973 5.024 73.4 5.26933 74.296 5.76C75.192 6.25067 75.9067 7.008 76.44 8.032C76.9733 9.056 77.24 10.368 77.24 11.968C77.24 12.1387 77.2293 12.32 77.208 12.512C77.208 12.6827 77.1973 12.8533 77.176 13.024H66.776C66.8613 14.9013 67.384 16.2773 68.344 17.152C69.3253 18.0267 70.4667 18.464 71.768 18.464C73.304 18.464 74.5627 17.92 75.544 16.832L76.824 18.08C75.5867 19.5733 73.88 20.32 71.704 20.32ZM66.872 11.232H74.904C74.904 9.86667 74.552 8.78933 73.848 8C73.1653 7.18933 72.2587 6.784 71.128 6.784C70.1253 6.784 69.2187 7.14667 68.408 7.872C67.5973 8.576 67.0853 9.696 66.872 11.232Z" fill="#5A3315"/>
</svg>
